<svg width="80" height="80" viewBox="0 0 80 80" fill="none" xmlns="http://www.w3.org/2000/svg">
<path d="M58 0C70.1503 0 80 9.84974 80 22C80 28.4207 77.2489 34.1984 72.8617 38.22C71.8417 39.1551 71.8417 40.8449 72.8617 41.78C77.2489 45.8016 80 51.5793 80 58C80 70.1503 70.1503 80 58 80H22C9.84974 80 0 70.1503 0 58C0 51.5795 2.75063 45.8017 7.13756 41.7799C8.15752 40.8449 8.15752 39.1551 7.13756 38.2201C2.75063 34.1983 0 28.4205 0 22C0 9.84974 9.84974 2.57703e-07 22 0H58Z" fill="#FCBE1D"/>
</svg>
