<svg width="24" height="24" viewBox="0 0 24 24" fill="none" xmlns="http://www.w3.org/2000/svg">
<path fill-rule="evenodd" clip-rule="evenodd" d="M4.34989 21H19.6499C20.3944 21 20.9999 20.3945 20.9999 19.65V13.7C20.9999 13.424 20.7764 13.2 20.4999 13.2C20.2234 13.2 19.9999 13.424 19.9999 13.7V19.65C19.9999 19.843 19.8429 20 19.6499 20H4.34989C4.15739 20 3.99989 19.843 3.99989 19.65V4.35C3.99989 4.157 4.15739 4 4.34989 4H10.2999C10.5764 4 10.7999 3.7765 10.7999 3.5C10.7999 3.2235 10.5764 3 10.2999 3H4.34989C3.60539 3 2.99989 3.6055 2.99989 4.35V19.65C2.99989 20.3945 3.60539 21 4.34989 21ZM20.6909 3.03862C20.8134 3.08912 20.9104 3.18662 20.9614 3.30912C20.9869 3.37012 20.9999 3.43512 20.9999 3.50012V8.50012C20.9999 8.77662 20.7764 9.00012 20.4999 9.00012C20.2234 9.00012 19.9999 8.77662 19.9999 8.50012V4.70712L12.3534 12.3536C12.2559 12.4511 12.1279 12.5001 11.9999 12.5001C11.8719 12.5001 11.7439 12.4511 11.6464 12.3536C11.4509 12.1581 11.4509 11.8416 11.6464 11.6466L19.2929 4.00012H15.4999C15.2234 4.00012 14.9999 3.77662 14.9999 3.50012C14.9999 3.22362 15.2234 3.00012 15.4999 3.00012H20.4999C20.5649 3.00012 20.6299 3.01312 20.6909 3.03862Z" fill="black"/>
</svg>
