<svg width="24" height="24" viewBox="0 0 24 24" fill="none" xmlns="http://www.w3.org/2000/svg">
<path fill-rule="evenodd" clip-rule="evenodd" d="M11 15.5C11 17.9815 13.0185 20 15.5 20C17.9815 20 20 17.9815 20 15.5C20 13.0185 17.9815 11 15.5 11C13.0185 11 11 13.0185 11 15.5ZM4 17.8185C4 17.9185 4.0815 18 4.1815 18H10.607C10.2215 17.249 10 16.4005 10 15.5C10 12.4675 12.4675 10 15.5 10C16.4005 10 17.249 10.2215 18 10.6075V4.1815C18 4.0815 17.9185 4 17.8185 4H4.1815C4.0815 4 4 4.0815 4 4.1815V17.8185ZM19 4.1815V11.2605C20.2205 12.2705 21 13.796 21 15.5C21 18.5325 18.5325 21 15.5 21C13.796 21 12.2705 20.2205 11.2605 19H4.1815C3.5305 19 3 18.4695 3 17.8185V4.1815C3 3.5305 3.5305 3 4.1815 3H17.8185C18.4695 3 19 3.5305 19 4.1815ZM16 15H18.5C18.7765 15 19 15.2235 19 15.5C19 15.7765 18.7765 16 18.5 16H16V18.5C16 18.7765 15.7765 19 15.5 19C15.2235 19 15 18.7765 15 18.5V16H12.5C12.2235 16 12 15.7765 12 15.5C12 15.2235 12.2235 15 12.5 15H15V12.5C15 12.2235 15.2235 12 15.5 12C15.7765 12 16 12.2235 16 12.5V15Z" fill="black"/>
</svg>
