<svg width="108" height="107" viewBox="0 0 108 107" fill="none" xmlns="http://www.w3.org/2000/svg">
<path d="M50.2174 2.29716C51.6584 -0.765715 56.0153 -0.765715 57.4563 2.29716L64.4583 17.1802C65.3942 19.1695 67.7602 20.0306 69.7558 19.1083L84.6863 12.2081C87.759 10.788 91.0965 13.5886 90.2316 16.8612L86.0289 32.763C85.4671 34.8885 86.726 37.069 88.8476 37.6453L104.72 41.9565C107.987 42.8438 108.744 47.1344 105.977 49.0854L92.5364 58.5655C90.7398 59.8326 90.3026 62.3122 91.5575 64.1173L100.946 77.6228C102.878 80.4022 100.699 84.1754 97.3261 83.8919L80.936 82.5143C78.7452 82.3301 76.8165 83.9486 76.6174 86.138L75.128 102.518C74.8214 105.889 70.7273 107.379 68.3256 104.994L56.6556 93.4035C55.0957 91.8543 52.5779 91.8543 51.0181 93.4035L39.348 104.994C36.9464 107.379 32.8522 105.889 32.5457 102.518L31.0562 86.138C30.8571 83.9486 28.9284 82.3301 26.7376 82.5143L10.3475 83.8919C6.97452 84.1754 4.79607 80.4022 6.72811 77.6228L16.1162 64.1173C17.371 62.3122 16.9338 59.8326 15.1372 58.5655L1.69619 49.0854C-1.06993 47.1344 -0.313361 42.8438 2.95321 41.9565L18.826 37.6453C20.9476 37.069 22.2065 34.8885 21.6448 32.763L17.442 16.8612C16.5771 13.5886 19.9147 10.788 22.9873 12.2081L37.9178 19.1083C39.9135 20.0306 42.2794 19.1695 43.2154 17.1802L50.2174 2.29716Z" fill="#FCBE1D"/>
</svg>
